<svg width="11" height="11" viewBox="0 0 11 11" fill="none" xmlns="http://www.w3.org/2000/svg">
<g clip-path="url(#clip0_5_26)">
<path d="M0.0286884 4.00472C0.0638618 3.89571 0.130341 3.79947 0.219837 3.72799C0.309334 3.6565 0.41789 3.61294 0.531973 3.60273L3.70688 3.31443L4.96231 0.375935C5.05491 0.160591 5.26572 0.0212402 5.49995 0.0212402C5.73418 0.0212402 5.94501 0.160613 6.03757 0.376472L7.29302 3.31445L10.4684 3.60273C10.5824 3.61317 10.6908 3.65683 10.7801 3.72828C10.8695 3.79974 10.936 3.89586 10.9712 4.00472C11.0436 4.22747 10.9768 4.47178 10.8003 4.62578L8.40039 6.73044L9.10806 9.84769C9.15984 10.0769 9.0709 10.3138 8.88071 10.4513C8.77851 10.5252 8.6589 10.5628 8.53831 10.5628C8.43432 10.5628 8.33119 10.5347 8.23859 10.4793L5.49995 8.84252L2.7623 10.4793C2.56198 10.5999 2.30944 10.5888 2.11969 10.4513C2.02679 10.384 1.95571 10.291 1.91529 10.1837C1.87486 10.0763 1.86688 9.95951 1.89233 9.84769L2.59998 6.73044L0.200138 4.62621C0.113809 4.55081 0.0515356 4.45171 0.0210543 4.34122C-0.00942707 4.23073 -0.00677204 4.11371 0.0286884 4.00472Z" fill="#F5CA48"/>
</g>
<defs>
<clipPath id="clip0_5_26">
<rect width="11" height="11" fill="white" transform="matrix(-1 0 0 1 11 0)"/>
</clipPath>
</defs>
</svg>
