<svg width="19" height="21" viewBox="0 0 19 21" fill="none" xmlns="http://www.w3.org/2000/svg">
<path d="M15.1942 0.59001C14.9837 0.226078 14.5918 0 14.1717 0H9.78055V5.1941H17.8571L15.1942 0.59001ZM8.54963 0H4.11707C3.69608 0 3.30426 0.226488 3.09377 0.59124L0.440672 5.1941H8.54958V0H8.54963ZM0 6.42502V19.5528C0 20.3509 0.649523 21 1.44756 21H16.8407C17.6388 21 18.2883 20.3509 18.2883 19.5528V6.42502H0ZM11.9379 11.9457L8.75475 15.1289C8.63453 15.2491 8.47695 15.3095 8.3194 15.3095C8.16186 15.3095 8.00428 15.2491 7.88447 15.1289L6.3922 13.637C6.15218 13.397 6.15218 13.0072 6.3922 12.7667C6.63264 12.5263 7.02245 12.5263 7.26288 12.7667L8.31945 13.8237L11.0677 11.0754C11.3081 10.835 11.6979 10.835 11.938 11.0754C12.1784 11.3159 12.1784 11.7053 11.9379 11.9457Z" fill="#67C6B0"/>
</svg>
