<svg width="15" height="26" viewBox="0 0 15 26" fill="none" xmlns="http://www.w3.org/2000/svg">
<path d="M12.838 0.992737H1.68906C1.24144 0.993869 0.812481 1.17219 0.495965 1.4887C0.17945 1.80522 0.00113179 2.23418 0 2.6818V24.3102C0.00113096 24.7579 0.179426 25.187 0.495921 25.5036C0.812417 25.8202 1.24138 25.9987 1.68906 26H12.838C13.2856 25.9989 13.7146 25.8206 14.0311 25.504C14.3476 25.1875 14.526 24.7586 14.5271 24.3109V2.6818C14.526 2.23418 14.3476 1.80522 14.0311 1.4887C13.7146 1.17219 13.2856 0.993869 12.838 0.992737ZM5.48017 2.21023H9.04692C9.10121 2.21023 9.15327 2.2318 9.19166 2.27019C9.23005 2.30858 9.25162 2.36065 9.25162 2.41494C9.25162 2.46923 9.23005 2.52129 9.19166 2.55968C9.15327 2.59807 9.10121 2.61964 9.04692 2.61964H5.48017C5.42588 2.61964 5.37381 2.59807 5.33542 2.55968C5.29703 2.52129 5.27546 2.46923 5.27546 2.41494C5.27546 2.36065 5.29703 2.30858 5.33542 2.27019C5.37381 2.2318 5.42588 2.21023 5.48017 2.21023ZM7.26354 25.1555C7.03956 25.1555 6.82475 25.0665 6.66637 24.9081C6.50799 24.7497 6.41901 24.5349 6.41901 24.3109C6.41901 24.087 6.50799 23.8722 6.66637 23.7138C6.82475 23.5554 7.03956 23.4664 7.26354 23.4664C7.48753 23.4664 7.70234 23.5554 7.86072 23.7138C8.0191 23.8722 8.10807 24.087 8.10807 24.3109C8.10807 24.5349 8.0191 24.7497 7.86072 24.9081C7.70234 25.0665 7.48753 25.1555 7.26354 25.1555ZM13.3517 22.8741H1.17534V3.67137H13.3517V22.8741Z" fill="black"/>
</svg>
